<svg height="116" viewBox="0 0 100 116" width="100" xmlns="http://www.w3.org/2000/svg"><path d="m75.479 0a20 20 0 0 1 17.3 9.966l17.4 30a20 20 0 0 1 0 20.069l-17.4 30a20 20 0 0 1 -17.3 9.965h-34.958a20 20 0 0 1 -17.3-9.966l-17.4-30a20 20 0 0 1 0-20.069l17.4-30a20 20 0 0 1 17.3-9.965z" fill="#1791cf" transform="matrix(0 1 -1 0 100 0)"/><path d="m65.451 0a10 10 0 0 1 8.679 5.033l18.027 31.5a10 10 0 0 1 0 9.934l-18.027 31.5a10 10 0 0 1 -8.679 5.033h-35.9a10 10 0 0 1 -8.679-5.033l-18.029-31.5a10 10 0 0 1 0-9.934l18.027-31.5a10 10 0 0 1 8.679-5.033z" fill="#1aa1e6" transform="matrix(0 1 -1 0 92 11)"/><path d="m50.226-157.2c3.042 0 5.894-.857 5.894-7.143 0-7.143-7.129-19.619-23.289-19.619-14.259 0-26.711 10.667-26.711 25.333 0 12.286 8.84 24.667 25.951 24.667 8.555 0 21.958-5.333 21.958-12.667 0-1.81-1.711-4.762-3.707-4.762s-5.514 4.291-12.643 4.291c-4.468 0-10.646-4-10.646-8.762 0-1.619 1.521-1.333 2.567-1.333zm-17.966-9.143c-2.471 0-5.7.762-5.7-2.667 0-3.048 2.567-6.286 5.7-6.286 3.517 0 5.608 2.667 5.608 6.1s-3.041 2.855-5.607 2.855z" fill="#f7f7f7" transform="translate(18.88 217.96)"/></svg>