<svg viewBox="0 0 485.93 50.01" xmlns="http://www.w3.org/2000/svg"><g stroke="#0e140e" stroke-miterlimit="10" stroke-width="3"><path d="m453.94 1.74h8.56l8 13.16.68-13.16 13.15 2-2.77 39.86-10.89-.68-8.39-12.82-2.44 13.56-13.44-.57z" fill="#de2927"/><path d="m444.76 1.57-2.33 11.74-13.66 2.1-.17 2.89 12.07.91-.56 9-10.78 1 1 3.06 13.1.12 4.82 11.29h-31.25l-3.06-27.12 3.06-15z" fill="#41a548"/><path d="m406.37 21.31-8.56-5.51-2.16 2.73 15.35 11.23-7.42 14h-18.25l-12.7-10.1 5.5-9.24 10.95 6.18 1.64-2.55-16.05-9.53 15.2-17h13.67l10.15 10.78z" fill="#eec51a"/><path d="m370.93 1.57-2.32 11.74-13.67 2.1-.17 2.89 12.08.91-.57 9-10.77 1 1 3.06 13.1.12 4.82 11.29h-31.28l-3.06-27.12 3.06-15z" fill="#18a0db"/><path d="m318.43 1.79-.29 11.46 8.91-10.15 8.1 8.62-10.26 11.17 15.2 10.84-9.36 10.1-12.73-13.83 2.32 13.9h-14.54l.8-42.15z" fill="#41a548"/><path d="m298.24 21.31-8.56-5.51-2.15 2.73 15.31 11.23-7.43 14h-18.2l-12.7-10.1 5.49-9.23 11 6.18 1.64-2.55-16-9.53 15.19-17h13.67l10.15 10.78z" fill="#18a0db"/><path d="m267.06 40.88-17.13 2.72-1.36-10-13.78-.34-3.11 10.72-16.5-2.98 22.62-38.07 11.34-1.14zm-28.69-18.44 8.67.23-2-5.84-4.37-.17z" fill="#eec51a"/><path d="m220.73 2.47v17l-14.17-2.32 3.91 26.71h-20.3l3.06-26.71-14.4-.74v-14.67z" fill="#de2927"/><path d="m163.28 29.08 17.41-2.08 1.59 13.1-31.53 3.75-1.58-42 15.76 1.82z" fill="#18a0db"/><path d="m151.77 41.39-17.12 2.72-1.36-10-13.78-.34-3.12 10.72-16.5-3 22.63-38.05 11.34-1.14zm-28.69-18.39 8.68.23-2-5.84-4.36-.17z" fill="#de2927"/><path d="m105.17 11.89 2.43 22.75-11.73 9.58h-23.48v-39.53l20.87-2.56zm-19.79 17.75 7.62-2.64v-6.2l-7.65-3.52z" fill="#eec51a"/><path d="m68 10.08 1 13.21-5.9 6.58 10.49 9.25-12.3 5.33-12.87-11 1.93 10.94h-13l-3.35-40.16 23.54-1.81zm-20 12.13 3.46.46 3.46-5-6.58-3.52z" fill="#41a548"/><path d="m32.36 2.08-2.36 11.74-13.67 2.1-.17 2.89 12.08.91-.57 9-10.77 1 1 3.06 13.1.12 4.82 11.29h-31.24l-3.06-27.14 3.06-15z" fill="#18a0db"/><path d="m287.16 39 2.66 4.66-1.82 3.46-5.27 1.19-2.44-4.14 2.39-5.17z" fill="#eec51a"/></g></svg>
