<svg xmlns="http://www.w3.org/2000/svg" width="343.8" height="100.1" viewBox="0 0 343.8 100.1"><g transform="translate(-251.5 -413.6)"><path d="M5.4-74.5h49L50.3-53.8,26.2-50.1,25.9-45l21.3,1.6-1,15.9-19,1.7,1.7,5.4,23.1.2L60.5-.3H5.4L0-48.1Zm93.4.6,18.5,13.5L119-37.1,108.6-25.5,127.1-9.2,105.4.2,82.7-19.2,86.1.1h-23L57.3-70.7ZM82.7-53.2,82.1-39l6.1.8L94.3-47Zm79.1-21.2,21,17.2,4.3,40.1L166.4-.2H125V-69.9ZM147.9-47.7v21.8l13.5-4.7V-41.5Zm85.5-26.4L265-5.2,234.8-.4l-2.4-17.7-24.3-.6L202.6.2,173.5-5l39.9-67.1ZM218.5-47.9l-4.1,10.2,15.3.4-3.5-10.3Zm69.7-23.8-2.9,44.8L316-30.6l2.8,23.1L263.2-.9l-2.8-74Z" transform="translate(264 501)" fill="#f80bef" stroke="#000" stroke-linejoin="round" stroke-width="25"/><path d="M5.4-74.5h49L50.3-53.8,26.2-50.1,25.9-45l21.3,1.6-1,15.9-19,1.7,1.7,5.4,23.1.2L60.5-.3H5.4L0-48.1Z" transform="translate(264 501)" fill="#1aa1e6"/><path d="M41.5-73.9,60-60.4l1.7,23.3L51.3-25.5,69.8-9.2,48.1.2,25.4-19.2,28.8.1H5.8L0-70.7ZM25.4-53.2,24.8-39l6.1.8L37-47Z" transform="translate(321.3 501)" fill="#4db355"/><path d="M36.8-74.4l21,17.2,4.3,40.1L41.4-.2H0V-69.9ZM22.9-47.7v21.8l13.5-4.7V-41.5Z" transform="translate(389 501)" fill="#ffd500"/><path d="M44.9-74.1,76.5-5.2,46.3-.4,43.9-18.1l-24.3-.6L14.1.2-15-5,24.9-72.1ZM30-47.9,25.9-37.7l15.3.4L37.7-47.6Z" transform="translate(452.5 501)" fill="#cc3633"/><path d="M27.8-71.7,24.9-26.9l30.7-3.7L58.4-7.5,2.8-.9,0-74.9Z" transform="translate(524.3 501)" fill="#4db355"/></g></svg>